Coordinates
version=1
nRows=24
nColumns=24
inDegrees=yes

Units are S.I. units (second, meters, Newtons, ...)
Angles are in degrees.

endheader
time	pelvis_tilt	pelvis_list	pelvis_rotation	pelvis_tx	pelvis_ty	pelvis_tz	hip_flexion_r	hip_adduction_r	hip_rotation_r	knee_angle_r	ankle_angle_r	subtalar_angle_r	mtp_angle_r	hip_flexion_l	hip_adduction_l	hip_rotation_l	knee_angle_l	ankle_angle_l	subtalar_angle_l	mtp_angle_l	lumbar_extension	lumbar_bending	lumbar_rotation
      8.06000000	    -11.39084130	      7.57093338	      3.91063422	     -0.37629242	     -0.03121088	      2.05956811	     17.93639301	    -13.23797094	    -11.40897492	    -61.20030408	    -21.72174912	    -13.07270491	     13.08787000	     27.52395562	     12.53621842	     -2.81949106	    -21.68033762	     -2.01128035	     -6.51726521	     14.24466875	      9.36059514	     -9.36674806	      0.19394326
      8.07000000	    -11.27054387	      7.50440518	      3.75012407	     -0.36363705	     -0.02898337	      2.05922186	     19.75230607	    -12.86046302	    -10.39081618	    -62.25385106	    -19.70227403	    -14.17913381	     10.99291298	     26.17891113	     12.36603493	     -3.10435191	    -21.02767112	     -1.52594837	     -6.15710232	     15.52979233	      9.16377254	     -9.23637515	      0.03588763
      8.08000000	    -11.10378312	      7.38645249	      3.62541648	     -0.35102820	     -0.02669456	      2.05873583	     21.41884301	    -12.43996913	     -9.50379821	    -62.87422281	    -17.96188374	    -14.73446421	     11.12242774	     24.71601392	     12.21198746	     -3.12549517	    -20.28397016	     -0.95861991	     -5.88784336	     15.69325406	      8.91057396	     -9.03947391	     -0.11607187
      8.09000000	    -10.98219914	      7.25284948	      3.49485175	     -0.33839327	     -0.02452870	      2.05825723	     23.07603592	    -11.99668890	     -8.70348865	    -63.16142985	    -16.26257929	    -14.83477296	     11.30092077	     23.22946548	     12.07057088	     -3.02437604	    -19.40642933	     -0.44559240	     -5.76211338	     15.78606757	      8.72106290	     -8.82595638	     -0.22753300
      8.10000000	    -10.84868250	      7.01160773	      3.41356009	     -0.32583317	     -0.02242021	      2.05771374	     24.60746345	    -11.45689087	     -8.07496162	    -63.07602904	    -14.55525149	    -14.47623132	     11.77013428	     21.71295356	     11.86580448	     -2.72084154	    -18.49214324	      0.00002090	     -5.79054361	     15.72334279	      8.49977053	     -8.51371853	     -0.38253825
      8.11000000	    -10.55806721	      6.68910762	      3.42174208	     -0.31337414	     -0.02023780	      2.05691758	     25.78878769	    -10.91066279	     -7.71143710	    -62.52031727	    -13.24104012	    -14.04361022	     14.79854771	     20.03337233	     11.64853218	     -2.13532819	    -17.62251299	      0.59334890	     -5.92603001	     14.33100457	      8.07299976	     -8.10656183	     -0.63453173
      8.12000000	    -10.46871155	      6.32848508	      3.45282906	     -0.30095150	     -0.01846499	      2.05620289	     27.13246795	    -10.32777341	     -7.41678881	    -61.76094570	    -11.59849225	    -13.22161152	     15.55167527	     18.60903197	     11.37058627	     -1.64825215	    -16.75595795	      0.93431248	     -6.13090983	     14.08683317	      7.87012253	     -7.69685388	     -0.86476264
      8.13000000	    -10.20236008	      5.83775652	      3.59291132	     -0.28861611	     -0.01659143	      2.05521457	     28.08233323	     -9.70750215	     -7.42833816	    -60.50205158	    -10.73198085	    -12.77889500	     19.32023937	     17.04004721	     11.00607195	     -0.87344204	    -16.03028065	      1.63561573	     -6.28061160	     11.93984690	      7.44814184	     -7.14981833	     -1.22016123
      8.14000000	    -10.12307985	      5.36175410	      3.82927354	     -0.27636779	     -0.01521167	      2.05425314	     29.18254116	     -9.14860378	     -7.54676433	    -59.14504382	     -9.43846632	    -12.06997974	     19.72126460	     15.72523389	     10.64087350	     -0.16401333	    -15.31685215	      1.94199272	     -6.53373712	     11.70132478	      7.21262182	     -6.66976721	     -1.61657874
      8.15000000	     -9.93419388	      4.82306711	      4.16664911	     -0.26406271	     -0.01385518	      2.05308263	     30.00280474	     -8.63356449	     -7.95725425	    -57.45520113	     -8.45558054	    -11.59447728	     20.08773742	     14.29827548	     10.20966574	      0.56604597	    -14.61361439	      2.30795358	     -6.73786721	     11.24642163	      6.87273974	     -6.12032468	     -2.12711778
      8.16000000	     -9.79775283	      4.30750496	      4.51288367	     -0.25179860	     -0.01281312	      2.05197515	     30.80838984	     -8.16097540	     -8.41986574	    -55.55881374	     -7.63794659	    -11.23090379	     20.19689395	     12.96380863	      9.76161633	      1.19520820	    -13.95606520	      2.75559984	     -6.76077362	     10.75969857	      6.59229159	     -5.60866700	     -2.60647462
      8.17000000	     -9.70668191	      3.81298457	      4.87933588	     -0.23954682	     -0.01207351	      2.05089325	     31.57812114	     -7.73893800	     -8.94203920	    -53.46392536	     -6.89126055	    -10.87470373	     19.98941049	     11.69938513	      9.30663682	      1.73166919	    -13.31662232	      3.24358168	     -6.66566143	     10.33972802	      6.36646752	     -5.12686292	     -3.06963124
      8.18000000	     -9.63278176	      3.34018564	      5.23823364	     -0.22730338	     -0.01157959	      2.04991725	     32.27446987	     -7.34082336	     -9.48248666	    -51.16190893	     -6.17723735	    -10.44976814	     19.47395457	     10.46587399	      8.83955497	      2.17919194	    -12.67951912	      3.75138849	     -6.49444322	      9.96907044	      6.16787051	     -4.67436947	     -3.50236890
      8.19000000	     -9.58147036	      2.94115264	      5.44192267	     -0.21504598	     -0.01135675	      2.04927711	     32.96283050	     -6.89632421	     -9.79038284	    -48.75951868	     -5.15539700	     -9.68365629	     16.75922187	      9.25226615	      8.39839916	      2.47656277	    -12.04691592	      4.45292549	     -6.24139552	      8.55992842	      6.00476064	     -4.28595688	     -3.73289584
      8.20000000	     -9.68938187	      2.52396465	      5.73608961	     -0.20287130	     -0.01148557	      2.04862534	     33.69894370	     -6.53259715	    -10.26171168	    -46.07886772	     -4.56845659	     -8.99985661	     16.56111513	      8.24343376	      7.94167965	      2.75324063	    -11.40995356	      4.89746454	     -6.04361028	      8.54436863	      5.99503936	     -3.91331658	     -4.07413598
      8.21000000	     -9.74525278	      2.15704481	      5.92549845	     -0.19065810	     -0.01175089	      2.04820171	     34.29563816	     -6.16500768	    -10.65281773	    -43.23273956	     -3.89351137	     -7.99168141	     16.32629323	      7.16863978	      7.49813120	      2.90528993	    -10.75254324	      5.33621019	     -5.84741117	      8.46051360	      5.93315640	     -3.57515463	     -4.26652853
      8.22000000	     -9.79855997	      1.81439262	      6.03186349	     -0.17844369	     -0.01217146	      2.04795090	     34.82481468	     -5.78939893	    -11.01490843	    -40.25683455	     -3.31764947	     -6.74440723	     16.14516913	      6.08730794	      7.05468375	      2.93609333	    -10.07979952	      5.79994431	     -5.61029770	      8.26940419	      5.86326718	     -3.24607847	     -4.42331726
      8.23000000	     -9.95612288	      1.53189546	      6.08151483	     -0.16617354	     -0.01292936	      2.04788664	     35.40515575	     -5.47878471	    -11.43550593	    -37.21489593	     -2.70624176	     -5.25511777	     16.26673295	      5.14720135	      6.66786816	      2.82681016	     -9.47322145	      6.26889165	     -5.31242206	      8.14072141	      5.90770470	     -2.99571408	     -4.43494059
      8.24000000	     -9.99923266	      1.22768241	      6.09028858	     -0.15388774	     -0.01363948	      2.04786462	     35.76323922	     -5.13119791	    -11.92782451	    -34.06203146	     -2.25719890	     -3.55355404	     16.72890900	      4.10875249	      6.23471788	      2.52159198	     -8.91099471	      6.78891588	     -4.84129818	      7.96893034	      5.82492848	     -2.68267145	     -4.51198179
      8.25000000	     -9.93054081	      0.92447926	      5.93965731	     -0.14144665	     -0.01432669	      2.04809755	     35.88894606	     -4.68455389	    -12.48174331	    -30.74725242	     -2.18884885	     -1.99340394	     19.48421713	      2.93966320	      5.77848922	      2.03798201	     -8.36291267	      7.36968623	     -4.34328148	      7.23907702	      5.64672863	     -2.33948382	     -4.30539958
      8.26000000	    -10.06789623	      0.56761322	      5.88017184	     -0.12904656	     -0.01532732	      2.04835438	     36.16371865	     -4.24928156	    -13.19876549	    -27.52125205	     -1.83343402	     -0.22564673	     20.16687121	      2.11993001	      5.28316014	      1.40679477	     -8.02606515	      7.95246495	     -3.59875819	      7.36966985	      5.68554848	     -1.98185412	     -4.25873731
      8.27000000	    -10.19699112	      0.34281234	      5.68469177	     -0.11665489	     -0.01650940	      2.04879967	     36.39333517	     -3.86054731	    -13.82008424	    -24.40424817	     -1.39522754	      1.67773057	     20.59094553	      1.31023738	      4.94289241	      0.62220938	     -7.74671522	      8.39647406	     -3.01882209	      7.49881718	      5.69868679	     -1.73166359	     -4.05461805
      8.28000000	    -10.18185148	      0.04342504	      5.50127983	     -0.10394697	     -0.01760519	      2.04943662	     36.28946105	     -3.32834872	    -14.50996356	    -21.17870570	     -1.10742410	      3.23153812	     20.74763884	      0.37448513	      4.49054898	     -0.19549057	     -7.55672768	      8.87464569	     -2.31941058	      7.68086962	      5.61067787	     -1.41017843	     -3.77872747
      8.29000000	    -10.19656041	     -0.13642649	      5.37428344	     -0.09104600	     -0.01897601	      2.05012961	     36.11288934	     -2.92182223	    -15.17802241	    -18.03253912	     -0.85509324	      4.78433313	     20.48692226	     -0.46357812	      4.16932004	     -0.97513242	     -7.54061195	      9.31210584	     -1.62536072	      7.86245697	      5.57005227	     -1.22969332	     -3.53622765
